<svg width="19" height="13" viewBox="0 0 19 13" fill="none" xmlns="http://www.w3.org/2000/svg">
<path d="M17.9592 5.80928L16.8687 4.79777C16.7944 4.72882 16.7373 4.6433 16.7023 4.54816L15.8459 2.22275C15.7234 1.89502 15.504 1.61241 15.2168 1.41257C14.9297 1.21273 14.5884 1.10515 14.2386 1.10418H12.9411V0.740172C12.9411 0.583631 12.8789 0.433502 12.7682 0.32281C12.6575 0.212119 12.5074 0.149933 12.3508 0.149933H4.50932C4.39265 0.148559 4.28004 0.192743 4.19543 0.273092C4.11082 0.353441 4.06088 0.463621 4.05623 0.580211C4.05514 0.638491 4.06568 0.696404 4.08723 0.750565C4.10878 0.804726 4.14091 0.854049 4.18174 0.895651C4.22256 0.937253 4.27128 0.9703 4.32502 0.99286C4.37877 1.01542 4.43648 1.02704 4.49477 1.02705H12.0639V4.83261C12.0639 4.98915 12.1261 5.13928 12.2368 5.24997C12.3475 5.36066 12.4976 5.42284 12.6541 5.42284H16.2187L17.2774 6.37558V9.92956H16.3176C16.222 9.51135 15.9873 9.13797 15.6519 8.87054C15.3164 8.60311 14.9002 8.45748 14.4712 8.45748C14.0422 8.45748 13.6259 8.60311 13.2904 8.87054C12.955 9.13797 12.7203 9.51135 12.6247 9.92956H9.67135C9.57578 9.51135 9.34106 9.13797 9.00563 8.87054C8.67019 8.60311 8.2539 8.45748 7.82491 8.45748C7.39592 8.45748 6.97963 8.60311 6.64419 8.87054C6.30876 9.13797 6.07404 9.51135 5.97847 9.92956H4.50929C4.3926 9.92819 4.27998 9.97238 4.19537 10.0528C4.11076 10.1331 4.06084 10.2433 4.05623 10.3599C4.05514 10.4182 4.06568 10.4761 4.08723 10.5303C4.10878 10.5844 4.14091 10.6338 4.18174 10.6754C4.22257 10.717 4.27128 10.75 4.32503 10.7726C4.37877 10.7951 4.43648 10.8067 4.49477 10.8067H5.98585C6.08743 11.2177 6.32374 11.5828 6.65705 11.8437C6.99036 12.1047 7.40147 12.2464 7.82479 12.2464C8.2481 12.2464 8.65921 12.1047 8.99252 11.8437C9.32583 11.5828 9.56214 11.2177 9.66372 10.8067H12.6322C12.7338 11.2177 12.9701 11.5828 13.3034 11.8437C13.6367 12.1047 14.0478 12.2464 14.4711 12.2464C14.8944 12.2464 15.3055 12.1047 15.6388 11.8437C15.9722 11.5828 16.2085 11.2177 16.31 10.8067H17.5643C17.7209 10.8067 17.871 10.7446 17.9817 10.6339C18.0924 10.5232 18.1545 10.3731 18.1546 10.2165V6.24796C18.1545 6.16524 18.1371 6.08346 18.1034 6.00789C18.0698 5.93233 18.0206 5.86467 17.9592 5.80928ZM12.9411 4.54584V1.98126H14.2386C14.4094 1.98172 14.576 2.03425 14.7162 2.13182C14.8564 2.2294 14.9636 2.36739 15.0234 2.52741L15.771 4.54584H12.9411ZM7.8248 11.3692C7.6236 11.3692 7.42691 11.3095 7.25961 11.1978C7.09231 11.086 6.96192 10.9271 6.88492 10.7412C6.80792 10.5553 6.78778 10.3507 6.82704 10.1534C6.86629 9.95607 6.96319 9.7748 7.10546 9.63253C7.24774 9.49025 7.42901 9.39337 7.62636 9.35412C7.8237 9.31487 8.02825 9.33502 8.21414 9.41202C8.40003 9.48903 8.55891 9.61942 8.67069 9.78673C8.78247 9.95403 8.84213 10.1507 8.84212 10.3519C8.84181 10.6216 8.73453 10.8802 8.54381 11.0709C8.3531 11.2616 8.09451 11.3689 7.8248 11.3692ZM14.4711 11.3692C14.2699 11.3692 14.0732 11.3096 13.9059 11.1978C13.7386 11.086 13.6082 10.9271 13.5312 10.7412C13.4542 10.5553 13.4341 10.3508 13.4733 10.1534C13.5126 9.95609 13.6095 9.77482 13.7517 9.63254C13.894 9.49026 14.0753 9.39337 14.2726 9.35412C14.47 9.31487 14.6745 9.33502 14.8604 9.41202C15.0463 9.48902 15.2052 9.61942 15.317 9.78672C15.4288 9.95402 15.4884 10.1507 15.4884 10.3519C15.4881 10.6216 15.3808 10.8802 15.1901 11.0709C14.9994 11.2616 14.7408 11.3689 14.4711 11.3692Z" fill="#D73F0F" stroke="#D73F0F" stroke-width="0.3"/>
<path d="M2.62757 3.48073H7.60127C7.7176 3.48073 7.82916 3.43452 7.91141 3.35227C7.99367 3.27001 8.03988 3.15845 8.03988 3.04212C8.03988 2.9258 7.99367 2.81424 7.91141 2.73198C7.82916 2.64973 7.7176 2.60352 7.60127 2.60352H2.62757C2.51125 2.60352 2.39969 2.64973 2.31743 2.73198C2.23518 2.81424 2.18896 2.9258 2.18896 3.04212C2.18896 3.15845 2.23518 3.27001 2.31743 3.35227C2.39969 3.43452 2.51125 3.48073 2.62757 3.48073Z" fill="#D73F0F" stroke="#D73F0F" stroke-width="0.3"/>
<path d="M8.0335 5.47818C8.0335 5.36185 7.98729 5.25029 7.90504 5.16803C7.82278 5.08578 7.71122 5.03957 7.5949 5.03957H0.592438C0.534511 5.03905 0.477055 5.05001 0.423388 5.07182C0.36972 5.09363 0.320905 5.12585 0.279759 5.16663C0.238614 5.20741 0.205955 5.25593 0.183666 5.30941C0.161378 5.36288 0.149902 5.42023 0.149902 5.47816C0.149902 5.53609 0.161378 5.59345 0.183666 5.64692C0.205955 5.70039 0.238614 5.74891 0.279759 5.78969C0.320905 5.83047 0.36972 5.86269 0.423388 5.8845C0.477055 5.90631 0.534511 5.91727 0.592438 5.91675H7.5949C7.71122 5.91675 7.82277 5.87055 7.90503 5.7883C7.98728 5.70605 8.0335 5.5945 8.0335 5.47818Z" fill="#D73F0F" stroke="#D73F0F" stroke-width="0.3"/>
<path d="M5.25909 7.91465C5.25909 7.85705 5.24775 7.80002 5.22571 7.74681C5.20367 7.6936 5.17136 7.64525 5.13064 7.60453C5.08991 7.5638 5.04156 7.5315 4.98835 7.50946C4.93514 7.48742 4.87811 7.47607 4.82052 7.47607H1.77208C1.65644 7.47711 1.54589 7.52377 1.46448 7.60591C1.38308 7.68805 1.3374 7.79902 1.3374 7.91467C1.3374 8.03031 1.38308 8.14128 1.46448 8.22342C1.54589 8.30556 1.65644 8.35222 1.77208 8.35326H4.82052C4.93684 8.35325 5.04839 8.30703 5.13064 8.22478C5.21289 8.14253 5.25909 8.03097 5.25909 7.91465Z" fill="#D73F0F" stroke="#D73F0F" stroke-width="0.3"/>
</svg>
