<svg width="9" height="5" viewBox="0 0 9 5" fill="none" xmlns="http://www.w3.org/2000/svg">
<path d="M0.177734 0.984375C0.0592448 0.875 0 0.742839 0 0.587891C0 0.423828 0.0592448 0.282552 0.177734 0.164062C0.287109 0.0546875 0.423828 0 0.587891 0C0.751953 0 0.888672 0.0546875 0.998047 0.164062L4.08789 3.25391L7.17773 0.164062C7.28711 0.0546875 7.42383 0 7.58789 0C7.75195 0 7.88867 0.0546875 7.99805 0.164062C8.11654 0.282552 8.17578 0.423828 8.17578 0.587891C8.17578 0.742839 8.11654 0.875 7.99805 0.984375L4.49805 4.48438C4.38867 4.60286 4.25195 4.66211 4.08789 4.66211C3.92383 4.66211 3.78711 4.60286 3.67773 4.48438L0.177734 0.984375Z" fill="#555555"/>
</svg>
