<svg width="16" height="16" viewBox="0 0 16 16" fill="none" xmlns="http://www.w3.org/2000/svg">
<path d="M1.75 9.75C1.40481 9.75 1.125 10.0298 1.125 10.375V12.875C1.125 14.5981 2.52688 16 4.25 16H11.75C13.4732 16 14.875 14.5981 14.875 12.875V10.375C14.875 10.0298 14.5952 9.75 14.25 9.75C13.9048 9.75 13.625 10.0298 13.625 10.375V12.875C13.625 13.9089 12.7839 14.75 11.75 14.75H4.25C3.21613 14.75 2.375 13.9089 2.375 12.875V10.375C2.375 10.0298 2.09519 9.75 1.75 9.75Z" fill="#111111"/>
<path d="M1.875 8.75H14.125C15.1589 8.75 16 7.90887 16 6.875V5.625C16 4.59113 15.1589 3.75 14.125 3.75H12.0387C12.2521 3.38197 12.375 2.95519 12.375 2.5C12.375 1.1215 11.2535 0 9.875 0C9.12884 0 8.45847 0.329 8 0.849031C7.54153 0.329 6.87116 0 6.125 0C4.7465 0 3.625 1.1215 3.625 2.5C3.625 2.95519 3.74787 3.38197 3.96134 3.75H1.875C0.841125 3.75 0 4.59113 0 5.625V6.875C0 7.90887 0.841125 8.75 1.875 8.75ZM9.875 1.25C10.5642 1.25 11.125 1.81075 11.125 2.5C11.125 3.18925 10.5642 3.75 9.875 3.75H8.625V2.5C8.625 1.81075 9.18575 1.25 9.875 1.25ZM4.875 2.5C4.875 1.81075 5.43575 1.25 6.125 1.25C6.81425 1.25 7.375 1.81075 7.375 2.5V3.75H6.125C5.43575 3.75 4.875 3.18925 4.875 2.5ZM1.25 5.625C1.25 5.28038 1.53038 5 1.875 5H7.375V5.625C7.375 5.97019 7.65481 6.25 8 6.25C8.34519 6.25 8.625 5.97019 8.625 5.625V5H14.125C14.4696 5 14.75 5.28038 14.75 5.625V6.875C14.75 7.21962 14.4696 7.5 14.125 7.5H1.875C1.53038 7.5 1.25 7.21962 1.25 6.875V5.625Z" fill="#111111"/>
</svg>
