<svg width="7" height="11" viewBox="0 0 7 11" fill="none" xmlns="http://www.w3.org/2000/svg">
<path d="M5.78321 9.21094L1.81056 5.23828L5.78321 1.26562C5.93556 1.125 6.01173 0.955078 6.01173 0.755859C6.01173 0.544922 5.93556 0.363281 5.78321 0.210938C5.64259 0.0703125 5.46681 0 5.25587 0C5.04493 0 4.86915 0.0703125 4.72853 0.210938L0.228527 4.71094C0.0761833 4.86328 1.14441e-05 5.04492 1.14441e-05 5.25586C1.14441e-05 5.45508 0.0761833 5.625 0.228527 5.76562L4.72853 10.2656C4.86915 10.418 5.04493 10.4941 5.25587 10.4941C5.46681 10.4941 5.64259 10.418 5.78321 10.2656C5.93556 10.125 6.01173 9.95508 6.01173 9.75586C6.01173 9.54492 5.93556 9.36328 5.78321 9.21094Z" fill="#111111"/>
</svg>
