<svg width="8" height="12" viewBox="0 0 8 12" fill="none" xmlns="http://www.w3.org/2000/svg">
<path d="M7.95115 5.14843L2.96899 11.8984C2.94574 11.9299 2.91543 11.9555 2.88049 11.9731C2.84555 11.9908 2.80696 11.9999 2.76782 12C2.73487 12 2.70223 11.9935 2.67187 11.9807C2.62021 11.9593 2.57723 11.9212 2.54983 11.8724C2.52242 11.8237 2.51218 11.7671 2.52075 11.7119L3.20849 7.24997H0.250003C0.203741 7.24997 0.158387 7.23713 0.118987 7.21289C0.0795867 7.18865 0.0476859 7.15395 0.0268346 7.11265C0.00598329 7.07135 -0.00300066 7.02508 0.000882316 6.97899C0.00476529 6.93289 0.021363 6.88877 0.0488284 6.85154L5.03099 0.101566C5.06418 0.0565804 5.11149 0.0240191 5.16537 0.00908492C5.21924 -0.00584928 5.27657 -0.00229448 5.32819 0.0191813C5.3798 0.0406571 5.42273 0.0788144 5.45011 0.127556C5.47749 0.176298 5.48775 0.232811 5.47924 0.288065L4.79149 4.74998H7.74998C7.79624 4.74997 7.8416 4.76281 7.88101 4.78705C7.92041 4.8113 7.95232 4.846 7.97317 4.8873C7.99402 4.9286 8.003 4.97488 7.99912 5.02098C7.99523 5.06708 7.97862 5.1112 7.95115 5.14843Z" fill="#FFB800"/>
</svg>
