<svg width="10" height="10" viewBox="0 0 10 10" fill="none" xmlns="http://www.w3.org/2000/svg">
<path d="M7.76764 9.99886C7.87256 10.0006 7.97473 9.96365 8.05633 9.89449C8.14281 9.83625 8.20641 9.74734 8.23552 9.64399C8.26486 9.54189 8.26486 9.43298 8.23552 9.33088L7.61831 6.36671L9.78852 4.3732C9.87839 4.30709 9.94488 4.21168 9.97766 4.10183C10.0026 3.99556 10.0026 3.88455 9.97766 3.77828C9.94907 3.6719 9.88562 3.57951 9.79847 3.51734C9.72145 3.45067 9.6285 3.40736 9.52969 3.3921L6.6228 3.13117L5.48792 0.333991C5.447 0.234198 5.3774 0.150279 5.28882 0.093935C5.20364 0.0332073 5.10313 0.000500933 5.00012 0V8.34978L7.47894 9.9258C7.56584 9.98039 7.66655 10.0059 7.76764 9.99886Z" fill="#C8C8C8"/>
<path d="M2.2287 9.99886C2.12378 10.0006 2.02161 9.96365 1.94001 9.89449C1.85353 9.83625 1.78992 9.74734 1.76081 9.64399C1.73147 9.54189 1.73147 9.43298 1.76081 9.33088L2.37803 6.36671L0.20782 4.3732C0.117952 4.30709 0.0514536 4.21168 0.0186739 4.10183C-0.00621557 3.99556 -0.00621557 3.88455 0.0186739 3.77828C0.0472636 3.6719 0.110715 3.57951 0.197865 3.51734C0.274888 3.45067 0.367837 3.40736 0.466652 3.3921L3.37354 3.13117L4.50842 0.333991C4.54934 0.234198 4.61894 0.150279 4.70752 0.093935C4.79269 0.0332073 4.89321 0.000500933 4.99622 0V8.34978L2.5174 9.9258C2.4305 9.98039 2.32978 10.0059 2.2287 9.99886Z" fill="#111111"/>
</svg>
