<svg width="8" height="10" viewBox="0 0 8 10" fill="none" xmlns="http://www.w3.org/2000/svg">
<path d="M7.79688 3.53125H7.8125C7.9375 3.65625 8 3.8125 8 4C8 4.17708 7.9375 4.33333 7.8125 4.46875C7.67708 4.59375 7.51562 4.65625 7.32812 4.65625C7.15104 4.65625 6.99479 4.59375 6.85938 4.46875L4 1.60938L1.14062 4.46875C1.00521 4.59375 0.84375 4.65625 0.65625 4.65625C0.479167 4.65625 0.328125 4.59375 0.203125 4.46875C0.0677083 4.33333 0 4.17708 0 4C0 3.8125 0.0677083 3.65625 0.203125 3.53125L3.53125 0.1875C3.65625 0.0625 3.8125 0 4 0C4.1875 0 4.34375 0.0625 4.46875 0.1875L7.79688 3.53125ZM7.79688 8.1875H7.8125C7.9375 8.32292 8 8.48438 8 8.67188C8 8.84896 7.9375 9 7.8125 9.125C7.67708 9.26042 7.51562 9.32812 7.32812 9.32812C7.15104 9.32812 6.99479 9.26042 6.85938 9.125L4 6.26562L1.14062 9.125C1.00521 9.26042 0.84375 9.32812 0.65625 9.32812C0.479167 9.32812 0.328125 9.26042 0.203125 9.125C0.0677083 9 0 8.84896 0 8.67188C0 8.48438 0.0677083 8.32292 0.203125 8.1875L3.53125 4.85938C3.65625 4.72396 3.8125 4.65625 4 4.65625C4.1875 4.65625 4.34375 4.72396 4.46875 4.85938L7.79688 8.1875Z" fill="white"/>
</svg>
