<svg width="14" height="14" viewBox="0 0 14 14" fill="none" xmlns="http://www.w3.org/2000/svg">
<path fill-rule="evenodd" clip-rule="evenodd" d="M9.1875 3.79744C9.1875 2.51799 8.08822 1.49319 6.78558 1.61957L6.78399 1.61972C5.72148 1.71888 4.8125 2.79554 4.8125 3.90828V4.47411C4.8125 4.71573 4.61662 4.91161 4.375 4.91161C4.13338 4.91161 3.9375 4.71573 3.9375 4.47411V3.90828C3.9375 2.39627 5.13978 0.894844 6.70188 0.748577C8.52556 0.572114 10.0625 2.00883 10.0625 3.79744V4.60244C10.0625 4.84407 9.86662 5.03994 9.625 5.03994C9.38338 5.03994 9.1875 4.84407 9.1875 4.60244V3.79744Z" fill="white"/>
<path fill-rule="evenodd" clip-rule="evenodd" d="M1.96781 5.14347C2.4843 4.52942 3.36981 4.22925 4.66658 4.22925H9.33325C10.63 4.22925 11.5155 4.52942 12.032 5.14347C12.5443 5.75256 12.5923 6.55308 12.5098 7.29903L12.5091 7.30519L12.072 10.8015C12.0075 11.4001 11.8565 12.0558 11.3222 12.5439C10.7907 13.0295 9.96724 13.2709 8.74991 13.2709H5.24991C4.03258 13.2709 3.20914 13.0295 2.67764 12.5439C2.14334 12.0558 1.99231 11.4001 1.92782 10.8014L1.49002 7.29904C1.40748 6.55309 1.45549 5.75256 1.96781 5.14347ZM2.35943 7.19978L2.79749 10.7043C2.85574 11.2479 2.9764 11.6317 3.26781 11.8979C3.56319 12.1678 4.12224 12.3959 5.24991 12.3959H8.74991C9.87759 12.3959 10.4366 12.1678 10.732 11.8979C11.0234 11.6317 11.1442 11.2479 11.2024 10.7043L11.2032 10.6966L11.6404 7.19971C11.7148 6.52392 11.6372 6.03335 11.3624 5.7067C11.0914 5.3845 10.5273 5.10425 9.33325 5.10425H4.66658C3.47252 5.10425 2.90844 5.3845 2.63743 5.7067C2.36267 6.03336 2.28503 6.52396 2.35943 7.19978Z" fill="white"/>
<path fill-rule="evenodd" clip-rule="evenodd" d="M8.45581 7.00008C8.45581 6.67792 8.71698 6.41675 9.03914 6.41675H9.04438C9.36655 6.41675 9.62772 6.67792 9.62772 7.00008C9.62772 7.32225 9.36655 7.58341 9.04438 7.58341H9.03914C8.71698 7.58341 8.45581 7.32225 8.45581 7.00008Z" fill="white"/>
<path fill-rule="evenodd" clip-rule="evenodd" d="M4.37183 7.00008C4.37183 6.67792 4.63299 6.41675 4.95516 6.41675H4.9604C5.28257 6.41675 5.54373 6.67792 5.54373 7.00008C5.54373 7.32225 5.28257 7.58341 4.9604 7.58341H4.95516C4.63299 7.58341 4.37183 7.32225 4.37183 7.00008Z" fill="white"/>
</svg>
