<svg width="22" height="22" viewBox="0 0 22 22" fill="none" xmlns="http://www.w3.org/2000/svg">
<path d="M4.85547 6.9707C4.66927 6.79883 4.57617 6.59115 4.57617 6.34766C4.57617 6.08984 4.66927 5.86784 4.85547 5.68164C5.02734 5.50977 5.24219 5.42383 5.5 5.42383C5.75781 5.42383 5.97266 5.50977 6.14453 5.68164L11 10.5371L15.8555 5.68164C16.0273 5.50977 16.2422 5.42383 16.5 5.42383C16.7578 5.42383 16.9727 5.50977 17.1445 5.68164C17.3307 5.86784 17.4238 6.08984 17.4238 6.34766C17.4238 6.59115 17.3307 6.79883 17.1445 6.9707L12.2891 11.8262L17.1445 16.6816C17.3307 16.8678 17.4238 17.0898 17.4238 17.3477C17.4238 17.5911 17.3307 17.7988 17.1445 17.9707C16.9727 18.1569 16.7578 18.25 16.5 18.25C16.2422 18.25 16.0273 18.1569 15.8555 17.9707L11 13.1367L6.14453 17.9707C5.97266 18.1569 5.75781 18.25 5.5 18.25C5.24219 18.25 5.02734 18.1569 4.85547 17.9707C4.66927 17.7988 4.57617 17.5911 4.57617 17.3477C4.57617 17.0898 4.66927 16.8678 4.85547 16.6816L9.71094 11.8262L4.85547 6.9707Z" fill="#999999"/>
</svg>
