<svg width="12" height="15" viewBox="0 0 12 15" fill="none" xmlns="http://www.w3.org/2000/svg">
<path d="M5.60503 14.9993C3.16846 14.9993 0.978724 13.4431 0.248687 11.1185C0.0942488 10.6267 0.000218391 10.1048 0.000218391 9.56278C0.000218391 6.53091 2.48246 4.08449 2.48246 4.08449C2.48246 4.08449 2.31146 5.07486 2.41785 5.91787C2.52423 6.76088 2.91629 7.27839 2.91629 7.27839C2.91629 7.27839 2.62999 5.95469 3.01038 5.0672C3.44823 4.04573 4.26489 3.57188 4.5786 2.65215C4.93967 1.5936 4.39863 0.362549 4.39863 0.362549C4.39863 0.362549 6.17818 1.05018 7.46412 2.82465C8.92256 4.83718 7.93979 7.43 7.93979 7.43C7.93979 7.43 8.07573 6.71383 8.81279 6.13359C9.54985 5.55335 9.25126 4.65344 9.25126 4.65344C9.25126 4.65344 11.2437 6.8864 11.2437 9.56284C11.2437 10.2894 11.0356 11.0222 10.7325 11.7043C9.83621 13.7208 7.81183 14.9993 5.60503 14.9993Z" fill="#D10028"/>
<path d="M2.48279 4.08521C2.48279 4.08521 2.38995 4.62348 2.38374 5.24405C1.80287 6.21698 1.25506 7.51201 1.25506 8.9362C1.25506 9.47818 1.34909 10.0001 1.50353 10.4919C2.23357 12.8165 4.42331 14.3727 6.85988 14.3727C7.51483 14.3727 8.15335 14.2593 8.75146 14.0482C7.83857 14.6573 6.74659 15 5.6053 15C3.16873 15 0.978993 13.4438 0.248956 11.1192C0.0945177 10.6274 0.000487328 10.1055 0.000487328 9.56349C0.00055027 6.53162 2.48279 4.08521 2.48279 4.08521Z" fill="#B7022D"/>
<path d="M2.79232 10.8895C2.79232 9.35852 3.79667 8.37105 4.42208 7.73755C5.5357 6.60925 5.33798 5.32544 5.33798 5.32544C5.33798 5.32544 7.52063 7.20191 7.86356 8.75833C8.19145 10.247 7.36663 11.0745 7.36663 11.0745C7.36663 11.0745 7.75097 10.9261 7.98996 10.6603C8.29438 10.3217 8.40378 9.91154 8.40378 9.91154C8.40378 9.91154 8.531 10.2194 8.3642 11.2724C8.24564 12.0209 7.85673 12.5811 7.40037 12.9933C6.29121 13.9952 4.56146 13.8983 3.55617 12.7922C3.12541 12.3183 2.79232 11.6923 2.79232 10.8895Z" fill="#FFA91A"/>
<path d="M7.10106 10.9352C7.1343 10.9352 7.16748 10.9221 7.19214 10.8961C7.24326 10.8421 7.69189 10.3432 7.69189 9.44583C7.69189 9.24045 7.66787 9.0273 7.62057 8.81233C7.55126 8.49768 7.394 8.1427 7.15325 7.75724C7.11655 7.69846 7.03921 7.68052 6.98037 7.71728C6.92159 7.75397 6.90371 7.83138 6.94041 7.89016C7.16598 8.25129 7.31232 8.57967 7.37549 8.86628C7.4189 9.06356 7.44092 9.25852 7.44092 9.44583C7.44092 10.2597 7.0276 10.7049 7.00997 10.7234C6.9623 10.7737 6.96437 10.8531 7.01468 10.9008C7.03902 10.9238 7.07007 10.9352 7.10106 10.9352ZM6.76439 7.53449C6.79017 7.53449 6.81621 7.52658 6.8386 7.51015C6.89443 7.46912 6.90647 7.39059 6.86545 7.33476L6.82863 7.28501C6.78716 7.2295 6.70863 7.21815 6.65305 7.25948C6.59753 7.30095 6.58612 7.37955 6.62752 7.43506L6.66327 7.4833C6.6878 7.5168 6.72588 7.53449 6.76439 7.53449Z" fill="#FFC91D"/>
<path d="M4.42393 7.73755C5.53756 6.60925 5.33984 5.32544 5.33984 5.32544C5.33984 5.32544 6.03324 5.92168 6.69986 6.72065C6.08612 7.35547 5.30339 8.28323 5.30339 9.63491C5.30339 10.4377 5.63648 11.0637 6.06724 11.5377C6.55865 12.0784 7.22327 12.3772 7.90381 12.4251C7.75589 12.6397 7.58471 12.8286 7.40229 12.9934C6.29312 13.9953 4.56338 13.8983 3.55809 12.7922C3.12733 12.3183 2.79424 11.6923 2.79424 10.8895C2.79418 9.35852 3.79859 8.37111 4.42393 7.73755Z" fill="#F79219"/>
<path d="M4.42153 7.73755C5.53516 6.60925 5.33743 5.32544 5.33743 5.32544C5.33743 5.32544 5.77509 5.70213 6.28909 6.25721C6.15103 6.53629 5.95456 6.82811 5.67611 7.11026C5.05077 7.74382 4.04635 8.73124 4.04635 10.2622C4.04635 11.065 4.37944 11.691 4.8102 12.1649C5.48008 12.902 6.47151 13.1902 7.38672 13.0046C6.27705 13.9942 4.55703 13.8941 3.55563 12.7922C3.12487 12.3183 2.79178 11.6923 2.79178 10.8895C2.79178 9.35852 3.79619 8.37111 4.42153 7.73755Z" fill="#EF7816"/>
<path d="M3.3175 0C3.3175 0 4.07074 0.474982 4.05644 1.35657C4.04891 1.82221 3.81105 2.19657 3.63722 2.61133C3.48197 2.98181 3.45111 3.54536 3.45111 3.54536C3.45111 3.54536 2.93504 3.10244 2.8799 2.11998C2.85826 1.73445 3.06238 1.26794 3.16883 0.933905C3.33362 0.416707 3.3175 0 3.3175 0Z" fill="#D10028"/>
<path d="M8.78452 4.26732C8.78452 4.26732 9.4221 3.64286 9.2218 2.78222C9.11604 2.32762 8.64401 2.03029 8.33444 1.70278C8.01892 1.36901 7.87364 0.765869 7.87364 0.765869C7.87364 0.765869 7.53628 1.17793 7.74868 1.97597C7.88518 2.4889 8.31123 2.8605 8.48612 3.1653C8.75692 3.63702 8.78452 4.26732 8.78452 4.26732Z" fill="#D10028"/>
</svg>
