<svg width="7" height="11" viewBox="0 0 7 11" fill="none" xmlns="http://www.w3.org/2000/svg">
<path d="M1.2832 10.2656C1.14258 10.418 0.966797 10.4941 0.755859 10.4941C0.544922 10.4941 0.369141 10.418 0.228516 10.2656C0.0761719 10.125 0 9.95508 0 9.75586C0 9.54492 0.0761719 9.36328 0.228516 9.21094L4.20117 5.23828L0.228516 1.26562C0.0761719 1.125 0 0.955078 0 0.755859C0 0.544922 0.0761719 0.363281 0.228516 0.210938C0.369141 0.0703125 0.544922 0 0.755859 0C0.966797 0 1.14258 0.0703125 1.2832 0.210938L5.7832 4.71094C5.93555 4.86328 6.01172 5.04492 6.01172 5.25586C6.01172 5.45508 5.93555 5.625 5.7832 5.76562L1.2832 10.2656Z" fill="#111111"/>
</svg>
